<svg xmlns="http://www.w3.org/2000/svg" xmlns:xlink="http://www.w3.org/1999/xlink" version="1.1" width="1000" height="1000" viewBox="0 0 1000 1000" xml:space="preserve">
<desc>Created with Fabric.js 3.5.0</desc>
<defs>
</defs>
<rect x="0" y="0" width="100%" height="100%" fill="rgba(0,255,231,0)"/>
<g transform="matrix(1 0 0 1 558.4294 465.896)" style="" id="866928">
		
<path xml:space="preserve" font-family="Amiko" font-size="108" font-style="normal" font-weight="bold" style="stroke: none; stroke-width: 1; stroke-dasharray: none; stroke-linecap: butt; stroke-dashoffset: 0; stroke-linejoin: miter; stroke-miterlimit: 4; is-custom-font: none; font-file-url: none; fill: rgb(153,204,153); fill-rule: nonzero; opacity: 1; white-space: pre;" d="M-305.42 33.93L-305.42-41.24L-280.58-41.24Q-265.03-41.24-257.36-34.92Q-249.70-28.60-249.70-16.62L-249.70-16.62Q-249.70-4.52-257.26 2.18Q-264.82 8.87-279.29 8.87L-279.29 8.87L-291.17 8.87L-291.17 33.93L-305.42 33.93ZM-291.17-3.55L-280.48-3.55Q-272.38-3.55-268.54-6.46Q-264.71-9.38-264.71-16.29L-264.71-16.29Q-264.71-22.99-268.49-25.80Q-272.27-28.60-280.58-28.60L-280.58-28.60L-291.17-28.60L-291.17-3.55Z"/><path xml:space="preserve" font-family="Amiko" font-size="108" font-style="normal" font-weight="bold" style="stroke: none; stroke-width: 1; stroke-dasharray: none; stroke-linecap: butt; stroke-dashoffset: 0; stroke-linejoin: miter; stroke-miterlimit: 4; is-custom-font: none; font-file-url: none; fill: rgb(153,204,153); fill-rule: nonzero; opacity: 1; white-space: pre;" d="M-189.43 35.22Q-197.96 35.22-204.44 31.61Q-210.92 27.99-214.43 21.29Q-217.94 14.60-217.94 5.74L-217.94 5.74Q-217.94-3.12-214.43-9.81Q-210.92-16.51-204.44-20.13Q-197.96-23.74-189.43-23.74L-189.43-23.74Q-180.90-23.74-174.42-20.13Q-167.94-16.51-164.43-9.81Q-160.92-3.12-160.92 5.74L-160.92 5.74Q-160.92 14.60-164.43 21.29Q-167.94 27.99-174.42 31.61Q-180.90 35.22-189.43 35.22L-189.43 35.22ZM-189.43 23.45Q-183.06 23.45-179.50 18.86Q-175.93 14.27-175.93 5.74L-175.93 5.74Q-175.93-2.90-179.50-7.44Q-183.06-11.97-189.43-11.97L-189.43-11.97Q-195.80-11.97-199.37-7.44Q-202.93-2.90-202.93 5.74L-202.93 5.74Q-202.93 14.27-199.37 18.86Q-195.80 23.45-189.43 23.45L-189.43 23.45Z"/><path xml:space="preserve" font-family="Amiko" font-size="108" font-style="normal" font-weight="bold" style="stroke: none; stroke-width: 1; stroke-dasharray: none; stroke-linecap: butt; stroke-dashoffset: 0; stroke-linejoin: miter; stroke-miterlimit: 4; is-custom-font: none; font-file-url: none; fill: rgb(153,204,153); fill-rule: nonzero; opacity: 1; white-space: pre;" d="M-88.99 33.93L-103.36 10.28L-109.84 17.40L-109.84 33.93L-124.09 33.93L-124.09-47.50L-109.84-47.50L-109.84 0.23L-90.18-22.45L-73.98-22.45L-94.50 0.34L-72.68 33.93L-88.99 33.93Z"/><path xml:space="preserve" font-family="Amiko" font-size="108" font-style="normal" font-weight="bold" style="stroke: none; stroke-width: 1; stroke-dasharray: none; stroke-linecap: butt; stroke-dashoffset: 0; stroke-linejoin: miter; stroke-miterlimit: 4; is-custom-font: none; font-file-url: none; fill: rgb(153,204,153); fill-rule: nonzero; opacity: 1; white-space: pre;" d="M7.56 5.74L7.56 10.06L-31.64 10.06Q-30.78 16.54-26.84 20.00Q-22.90 23.45-16.31 23.45L-16.31 23.45Q-11.45 23.45-5.78 21.67Q-0.11 19.89 4.75 16.76L4.75 16.76L5.18 16.76L5.18 28.31Q0.86 31.66-4.70 33.44Q-10.26 35.22-16.42 35.22L-16.42 35.22Q-25.27 35.22-31.86 31.66Q-38.45 28.10-42.01 21.40Q-45.58 14.70-45.58 5.74L-45.58 5.74Q-45.58-3.01-42.17-9.70Q-38.77-16.40-32.62-20.07Q-26.46-23.74-18.36-23.74L-18.36-23.74Q-10.48-23.74-4.59-20.18Q1.30-16.62 4.43-9.92Q7.56-3.22 7.56 5.74L7.56 5.74ZM-18.36-12.30Q-23.44-12.30-26.84-8.95Q-30.24-5.60-31.43 0.34L-31.43 0.34L-7.13 0.34Q-7.99-5.82-10.80-9.06Q-13.61-12.30-18.36-12.30L-18.36-12.30Z"/><path xml:space="preserve" font-family="Amiko" font-size="108" font-style="normal" font-weight="bold" style="stroke: none; stroke-width: 1; stroke-dasharray: none; stroke-linecap: butt; stroke-dashoffset: 0; stroke-linejoin: miter; stroke-miterlimit: 4; is-custom-font: none; font-file-url: none; fill: rgb(153,204,153); fill-rule: nonzero; opacity: 1; white-space: pre;" d="M108.22-23.74Q116.32-23.74 121.23-18.72Q126.14-13.70 126.14-5.49L126.14-5.49L126.14 33.93L111.89 33.93L111.89 2.61Q111.89-4.74 109.94-7.92Q108-11.11 103.46-11.11L103.46-11.11Q97.96-11.11 92.12-4.95L92.12-4.95L92.12 33.93L77.87 33.93L77.87 2.61Q77.87-4.74 75.92-7.92Q73.98-11.11 69.44-11.11L69.44-11.11Q63.94-11.11 58.10-4.95L58.10-4.95L58.10 33.93L43.85 33.93L43.85-9.92L41.47-22.45L54.54-22.45L56.59-15.21Q60.91-19.75 65.12-21.75Q69.34-23.74 74.20-23.74L74.20-23.74Q79.60-23.74 83.75-21.31Q87.91-18.88 90.07-14.67L90.07-14.67Q94.61-19.53 98.87-21.64Q103.14-23.74 108.22-23.74L108.22-23.74Z"/><path xml:space="preserve" font-family="Amiko" font-size="108" font-style="normal" font-weight="bold" style="stroke: none; stroke-width: 1; stroke-dasharray: none; stroke-linecap: butt; stroke-dashoffset: 0; stroke-linejoin: miter; stroke-miterlimit: 4; is-custom-font: none; font-file-url: none; fill: rgb(153,204,153); fill-rule: nonzero; opacity: 1; white-space: pre;" d="M191.59 35.22Q183.06 35.22 176.58 31.61Q170.10 27.99 166.59 21.29Q163.08 14.60 163.08 5.74L163.08 5.74Q163.08-3.12 166.59-9.81Q170.10-16.51 176.58-20.13Q183.06-23.74 191.59-23.74L191.59-23.74Q200.12-23.74 206.60-20.13Q213.08-16.51 216.59-9.81Q220.10-3.12 220.10 5.74L220.10 5.74Q220.10 14.60 216.59 21.29Q213.08 27.99 206.60 31.61Q200.12 35.22 191.59 35.22L191.59 35.22ZM191.59 23.45Q197.96 23.45 201.53 18.86Q205.09 14.27 205.09 5.74L205.09 5.74Q205.09-2.90 201.53-7.44Q197.96-11.97 191.59-11.97L191.59-11.97Q185.22-11.97 181.66-7.44Q178.09-2.90 178.09 5.74L178.09 5.74Q178.09 14.27 181.66 18.86Q185.22 23.45 191.59 23.45L191.59 23.45Z"/><path xml:space="preserve" font-family="Amiko" font-size="108" font-style="normal" font-weight="bold" style="stroke: none; stroke-width: 1; stroke-dasharray: none; stroke-linecap: butt; stroke-dashoffset: 0; stroke-linejoin: miter; stroke-miterlimit: 4; is-custom-font: none; font-file-url: none; fill: rgb(153,204,153); fill-rule: nonzero; opacity: 1; white-space: pre;" d="M287.93-23.74Q296.46-23.74 301.70-18.72Q306.94-13.70 306.94-5.49L306.94-5.49L306.94 33.93L292.68 33.93L292.68 2.61Q292.68-4.74 290.47-7.92Q288.25-11.11 283.18-11.11L283.18-11.11Q277.56-11.11 271.30-4.84L271.30-4.84L271.30 33.93L257.04 33.93L257.04-9.92L254.66-22.45L267.73-22.45L269.78-15.21Q274.43-19.75 278.75-21.75Q283.07-23.74 287.93-23.74L287.93-23.74Z"/></g>
<g transform="matrix(3.4176 0 0 3.4176 565.0091 560.419)" id="521592">
<path style="stroke: none; stroke-width: 1; stroke-dasharray: none; stroke-linecap: butt; stroke-dashoffset: 0; stroke-linejoin: miter; stroke-miterlimit: 4; is-custom-font: none; font-file-url: none; fill: rgb(92,225,230); fill-rule: nonzero; opacity: 1;" transform=" translate(-214.689, -43.0356)" d="M 180.572 43.137 C 182.303 43.4886 183.683 44.3137 184.711 45.6121 C 185.766 46.8835 186.293 48.3848 186.293 50.1161 C 186.293 52.5236 185.482 54.4307 183.859 55.8373 C 182.263 57.2169 179.936 57.9067 176.88 57.9067 H 164.585 V 29.2599 H 176.636 C 179.531 29.2599 181.749 29.8956 183.291 31.167 C 184.86 32.4384 185.644 34.2237 185.644 36.523 C 185.644 38.3084 185.171 39.7691 184.224 40.9053 C 183.304 42.0414 182.087 42.7853 180.572 43.137 Z M 170.306 41.2705 H 175.459 C 176.893 41.2705 177.975 40.9594 178.706 40.3372 C 179.463 39.688 179.842 38.7683 179.842 37.578 C 179.842 36.3878 179.476 35.4681 178.746 34.8188 C 178.016 34.1696 176.893 33.845 175.378 33.845 H 170.306 V 41.2705 Z M 175.743 53.2405 C 177.258 53.2405 178.421 52.9159 179.233 52.2666 C 180.045 51.5904 180.45 50.6165 180.45 49.3451 C 180.45 48.0738 180.031 47.0999 179.192 46.4237 C 178.381 45.7203 177.218 45.3687 175.703 45.3687 H 170.306 V 53.2405 H 175.743 Z M 199.107 35.1434 C 201 35.1434 202.623 35.5898 203.976 36.4825 C 205.329 37.3751 206.289 38.5789 206.857 40.0938 V 35.4275 H 212.538 V 57.9067 H 206.857 V 53.1999 C 206.289 54.7147 205.329 55.932 203.976 56.8518 C 202.623 57.7444 201 58.1908 199.107 58.1908 C 197.213 58.1908 195.509 57.7309 193.994 56.8112 C 192.479 55.8915 191.289 54.566 190.423 52.8347 C 189.585 51.0764 189.166 49.0205 189.166 46.6671 C 189.166 44.3137 189.585 42.2713 190.423 40.5401 C 191.289 38.7818 192.479 37.4428 193.994 36.523 C 195.509 35.6033 197.213 35.1434 199.107 35.1434 Z M 200.892 40.1343 C 199.107 40.1343 197.673 40.7159 196.591 41.8791 C 195.509 43.0423 194.968 44.6383 194.968 46.6671 C 194.968 48.6959 195.509 50.2919 196.591 51.4551 C 197.673 52.5912 199.107 53.1593 200.892 53.1593 C 202.623 53.1593 204.044 52.5777 205.153 51.4145 C 206.289 50.2243 206.857 48.6418 206.857 46.6671 C 206.857 44.6653 206.289 43.0829 205.153 41.9197 C 204.044 40.7294 202.623 40.1343 200.892 40.1343 Z M 231.113 35.1029 C 233.709 35.1029 235.779 35.955 237.321 37.6592 C 238.863 39.3634 239.634 41.7574 239.634 44.8412 V 57.9067 H 233.953 V 45.4904 C 233.953 43.705 233.493 42.3254 232.573 41.3516 C 231.654 40.3507 230.396 39.8503 228.8 39.8503 C 227.177 39.8503 225.878 40.3778 224.904 41.4328 C 223.931 42.4878 223.444 44.0026 223.444 45.9773 V 57.9067 H 217.722 V 35.4275 H 223.444 V 39.9314 C 224.039 38.4166 225.013 37.2399 226.365 36.4013 C 227.745 35.5357 229.327 35.1029 231.113 35.1029 Z M 257.814 57.9067 L 250.389 48.0873 V 57.9067 H 244.668 V 27.8803 H 250.389 V 44.76 L 257.774 35.4275 H 264.55 L 255.096 46.6265 L 264.793 57.9067 H 257.814 Z" stroke-linecap="round"/>
</g>
<g transform="matrix(3.4176 0 0 3.4176 184.9272 543.9025)" id="749914">
<path style="stroke: none; stroke-width: 1; stroke-dasharray: none; stroke-linecap: butt; stroke-dashoffset: 0; stroke-linejoin: miter; stroke-miterlimit: 4; is-custom-font: none; font-file-url: none; fill: rgb(255,255,255); fill-rule: nonzero; opacity: 1;" transform=" translate(-36.0678, -36.0678)" d="M 36.0678 0 C 28.9343 -8.50666e-8 21.9609 2.11534 16.0296 6.07852 C 10.0983 10.0417 5.47539 15.6747 2.7455 22.2652 C 0.0156126 28.8558 -0.698651 36.1078 0.693031 43.1043 C 2.08471 50.1007 5.51984 56.5274 10.564 61.5716 C 15.6082 66.6157 22.0348 70.0509 29.0313 71.4426 C 36.0278 72.8342 43.2798 72.12 49.8703 69.3901 C 56.4609 66.6602 62.0939 62.0373 66.0571 56.106 C 70.0202 50.1747 72.1356 43.2013 72.1356 36.0678 L 54.1017 36.0678 C 54.1017 39.6346 53.044 43.1212 51.0624 46.0869 C 49.0808 49.0526 46.2643 51.364 42.9691 52.7289 C 39.6738 54.0939 36.0478 54.451 32.5496 53.7552 C 29.0513 53.0593 25.838 51.3418 23.3159 48.8197 C 20.7938 46.2976 19.0763 43.0843 18.3804 39.586 C 17.6846 36.0878 18.0417 32.4618 19.4066 29.1665 C 20.7716 25.8713 23.083 23.0547 26.0487 21.0732 C 29.0144 19.0916 32.501 18.0339 36.0678 18.0339 L 36.0678 0 Z" stroke-linecap="round"/>
</g>
<g transform="matrix(3.4176 0 0 3.4176 121.6739 482.2699)" id="923122">
<path style="stroke: none; stroke-width: 1; stroke-dasharray: none; stroke-linecap: butt; stroke-dashoffset: 0; stroke-linejoin: miter; stroke-miterlimit: 4; is-custom-font: none; font-file-url: none; fill: rgb(92,225,230); fill-rule: nonzero; opacity: 1;" transform=" translate(-18.0339, -18.0339)" d="M 36.0678 0 C 31.3313 -5.64821e-8 26.6412 0.932921 22.2652 2.7455 C 17.8893 4.55807 13.9132 7.21481 10.564 10.564 C 7.21481 13.9132 4.55807 17.8893 2.7455 22.2653 C 0.93292 26.6412 -7.1519e-7 31.3313 0 36.0678 L 18.0339 36.0678 C 18.0339 33.6996 18.5004 31.3545 19.4066 29.1665 C 20.3129 26.9785 21.6413 24.9905 23.3159 23.3159 C 24.9905 21.6413 26.9785 20.3129 29.1665 19.4066 C 31.3545 18.5004 33.6995 18.0339 36.0678 18.0339 L 36.0678 0 Z" stroke-linecap="round"/>
</g>
<g transform="matrix(3.4176 0 0 3.4176 183.3075 543.9034)" id="15097">
<circle style="stroke: none; stroke-width: 1; stroke-dasharray: none; stroke-linecap: butt; stroke-dashoffset: 0; stroke-linejoin: miter; stroke-miterlimit: 4; is-custom-font: none; font-file-url: none; fill: rgb(92,225,230); fill-rule: nonzero; opacity: 1;" cx="0" cy="0" r="11.2712"/>
</g>
<g transform="matrix(3.4176 0 0 3.4176 183.3075 524.6431)" id="431649">
<path style="stroke: none; stroke-width: 1; stroke-dasharray: none; stroke-linecap: butt; stroke-dashoffset: 0; stroke-linejoin: miter; stroke-miterlimit: 4; is-custom-font: none; font-file-url: none; fill: rgb(255,255,255); fill-rule: nonzero; opacity: 1;" transform=" translate(-36.0678, -30.4322)" d="M 47.339 36.0678 C 47.339 34.5877 47.0475 33.122 46.481 31.7545 C 45.9146 30.387 45.0844 29.1445 44.0377 28.0979 C 42.9911 27.0513 41.7486 26.221 40.3811 25.6546 C 39.0136 25.0882 37.548 24.7966 36.0678 24.7966 C 34.5876 24.7966 33.122 25.0882 31.7545 25.6546 C 30.387 26.221 29.1445 27.0513 28.0979 28.0979 C 27.0512 29.1445 26.221 30.387 25.6546 31.7545 C 25.0882 33.122 24.7966 34.5877 24.7966 36.0678 L 36.0678 36.0678 H 47.339 Z" stroke-linecap="round"/>
</g>
<g transform="matrix(1 0 0 1 540.5186 660.1789)" style="" id="913514">
		
<path xml:space="preserve" font-family="Lato" font-size="56" font-style="normal" font-weight="normal" style="stroke: none; stroke-width: 1; stroke-dasharray: none; stroke-linecap: butt; stroke-dashoffset: 0; stroke-linejoin: miter; stroke-miterlimit: 4; is-custom-font: none; font-file-url: none; fill: rgb(255,255,255); fill-rule: nonzero; opacity: 1; white-space: pre;" d="M-155.20 13.28L-155.20 13.28Q-152.71 13.28-150.75 12.44Q-148.79 11.60-147.43 10.09Q-146.08 8.58-145.36 6.48Q-144.65 4.38-144.65 1.86L-144.65 1.86L-144.65-22.53L-139.24-22.53L-139.24 1.86Q-139.24 5.33-140.35 8.30Q-141.46 11.26-143.51 13.43Q-145.57 15.60-148.54 16.84Q-151.51 18.07-155.20 18.07L-155.20 18.07Q-158.90 18.07-161.87 16.84Q-164.84 15.60-166.91 13.43Q-168.98 11.26-170.09 8.30Q-171.19 5.33-171.19 1.86L-171.19 1.86L-171.19-22.53L-165.79-22.53L-165.79 1.83Q-165.79 4.35-165.07 6.45Q-164.36 8.55-163.00 10.06Q-161.64 11.57-159.67 12.43Q-157.70 13.28-155.20 13.28ZM-95.14-2.46L-95.14-2.46Q-95.14 2.05-96.57 5.75Q-98 9.44-100.60 12.08Q-103.21 14.71-106.85 16.15Q-110.49 17.59-114.91 17.59L-114.91 17.59L-129.92 17.59L-129.92-22.53L-114.91-22.53Q-110.49-22.53-106.85-21.09Q-103.21-19.65-100.60-17.00Q-98-14.36-96.57-10.66Q-95.14-6.96-95.14-2.46ZM-100.72-2.46L-100.72-2.46Q-100.72-6.15-101.72-9.06Q-102.73-11.98-104.58-13.99Q-106.43-16.01-109.06-17.07Q-111.69-18.14-114.91-18.14L-114.91-18.14L-124.46-18.14L-124.46 13.20L-114.91 13.20Q-111.69 13.20-109.06 12.13Q-106.43 11.07-104.58 9.07Q-102.73 7.06-101.72 4.15Q-100.72 1.24-100.72-2.46ZM-73.56 17.59L-87.75 17.59L-87.75-22.53L-74.96-22.53Q-71.26-22.53-68.59-21.80Q-65.91-21.08-64.19-19.73Q-62.47-18.39-61.64-16.44Q-60.82-14.50-60.82-12.06L-60.82-12.06Q-60.82-10.58-61.28-9.20Q-61.74-7.83-62.68-6.66Q-63.62-5.48-65.03-4.56Q-66.44-3.63-68.35-3.04L-68.35-3.04Q-63.95-2.18-61.71 0.12Q-59.47 2.42-59.47 6.17L-59.47 6.17Q-59.47 8.72-60.41 10.82Q-61.35 12.92-63.15 14.43Q-64.96 15.94-67.58 16.77Q-70.20 17.59-73.56 17.59L-73.56 17.59ZM-73.67-0.69L-82.32-0.69L-82.32 13.28L-73.64 13.28Q-71.32 13.28-69.65 12.75Q-67.98 12.22-66.91 11.25Q-65.83 10.28-65.32 8.95Q-64.82 7.62-64.82 6.03L-64.82 6.03Q-64.82 2.92-67.02 1.11Q-69.22-0.69-73.67-0.69L-73.67-0.69ZM-82.32-18.25L-82.32-4.56L-75.15-4.56Q-72.86-4.56-71.18-5.06Q-69.50-5.56-68.39-6.46Q-67.28-7.36-66.75-8.63Q-66.22-9.90-66.22-11.42L-66.22-11.42Q-66.22-14.94-68.35-16.60Q-70.48-18.25-74.96-18.25L-74.96-18.25L-82.32-18.25ZM-29.01 17.59L-45.36-22.53L-41.02-22.53Q-40.29-22.53-39.84-22.17Q-39.40-21.80-39.17-21.24L-39.17-21.24L-27.83 7.06Q-27.44 8.02-27.12 9.14Q-26.80 10.26-26.49 11.46L-26.49 11.46Q-26.24 10.26-25.94 9.14Q-25.65 8.02-25.26 7.06L-25.26 7.06L-13.97-21.24Q-13.78-21.72-13.30-22.13Q-12.82-22.53-12.12-22.53L-12.12-22.53L-7.76-22.53L-24.11 17.59L-29.01 17.59ZM3.81-22.53L3.81 17.59L-1.62 17.59L-1.62-22.53L3.81-22.53ZM24.64 0.85L20.52 0.85L20.52 17.59L15.12 17.59L15.12-22.53L26.46-22.53Q30.27-22.53 33.04-21.76Q35.81-20.99 37.62-19.54Q39.42-18.08 40.29-16.02Q41.16-13.96 41.16-11.42L41.16-11.42Q41.16-9.29 40.49-7.44Q39.82-5.59 38.54-4.12Q37.27-2.65 35.43-1.62Q33.60-0.58 31.28-0.05L31.28-0.05Q32.28 0.54 33.07 1.66L33.07 1.66L44.77 17.59L39.96 17.59Q38.47 17.59 37.77 16.44L37.77 16.44L27.36 2.11Q26.88 1.44 26.32 1.14Q25.76 0.85 24.64 0.85L24.64 0.85ZM20.52-18.25L20.52-3.10L26.21-3.10Q28.59-3.10 30.39-3.67Q32.20-4.25 33.42-5.30Q34.64-6.35 35.25-7.80Q35.87-9.26 35.87-11.02L35.87-11.02Q35.87-14.61 33.50-16.43Q31.14-18.25 26.46-18.25L26.46-18.25L20.52-18.25ZM45.08-22.53L76.50-22.53L76.50-17.97L63.53-17.97L63.53 17.59L58.10 17.59L58.10-17.97L45.08-17.97L45.08-22.53ZM97.80 13.28L97.80 13.28Q100.30 13.28 102.26 12.44Q104.22 11.60 105.57 10.09Q106.93 8.58 107.65 6.48Q108.36 4.38 108.36 1.86L108.36 1.86L108.36-22.53L113.76-22.53L113.76 1.86Q113.76 5.33 112.66 8.30Q111.55 11.26 109.49 13.43Q107.44 15.60 104.47 16.84Q101.50 18.07 97.80 18.07L97.80 18.07Q94.11 18.07 91.14 16.84Q88.17 15.60 86.10 13.43Q84.03 11.26 82.92 8.30Q81.82 5.33 81.82 1.86L81.82 1.86L81.82-22.53L87.22-22.53L87.22 1.83Q87.22 4.35 87.93 6.45Q88.65 8.55 90.01 10.06Q91.36 11.57 93.34 12.43Q95.31 13.28 97.80 13.28ZM138.49-22.53L154.53 17.59L150.33 17.59Q149.60 17.59 149.16 17.23Q148.71 16.86 148.48 16.30L148.48 16.30L144.73 6.62L126.73 6.62L122.98 16.30Q122.78 16.81 122.30 17.20Q121.83 17.59 121.13 17.59L121.13 17.59L116.93 17.59L132.97-22.53L138.49-22.53ZM134.54-13.60L128.24 2.70L143.22 2.70L136.92-13.63Q136.30-15.14 135.72-17.41L135.72-17.41Q135.41-16.26 135.11-15.29Q134.82-14.33 134.54-13.60L134.54-13.60ZM165.03-22.53L165.03 13.03L182.39 13.03L182.39 17.59L159.60 17.59L159.60-22.53L165.03-22.53Z"/></g>
</svg>